# xmcd
#
# Track frame offsets: 
#        150
#        15500
#        30538
#        39700
#        54730
#        73527
#        90669
#        107283
#        127287
#        143627
#        157091
#        170270
#        187838
#        206070
#        215720
#
# Disc length: 3012 seconds
#
# Revision: 0
# Processed by: cddbd v1.5.2PL0 Copyright (c) Steve Scherf et al.
# Submitted via: ExactAudioCopy v0.95b3
#
DISCID=d20bc20f
DTITLE=Sly and The Family Stone  - Small Talk (2007 Remaster)  FLAC
DYEAR=1900
DGENRE=
TTITLE0=Small Talk
TTITLE1=Say You Will
TTITLE2=Mother Beautiful
TTITLE3=Time For Livin'
TTITLE4=Can't Strain My Brain
TTITLE5=Loose Booty
TTITLE6=Holdin' On
TTITLE7=Wishful Thinkin'
TTITLE8=Better Thee Than Me
TTITLE9=Livin' While I'm Livin'
TTITLE10=This Is Love
TTITLE11=Crossword Puzzle
TTITLE12=Time For Livin'
TTITLE13=Loose Booty
TTITLE14=Positive
EXTD=
EXTT0=
EXTT1=
EXTT2=
EXTT3=
EXTT4=
EXTT5=
EXTT6=
EXTT7=
EXTT8=
EXTT9=
EXTT10=
EXTT11=
EXTT12=
EXTT13=
EXTT14=
PLAYORDER=
